<svg xmlns="http://www.w3.org/2000/svg" viewBox="0 0 87.05 108.91"><defs><style>.cls-1{fill:#fff;}</style></defs><g id="Layer_2" data-name="Layer 2"><g id="Robot_master" data-name="Robot master"><g id="Robot"><g id="Torso"><path id="Arm-right" class="cls-1" d="M86.85,57.82a1.49,1.49,0,0,0-2-.55,5.15,5.15,0,0,1-3.4.67A2.94,2.94,0,0,1,79,53.82a5.1,5.1,0,0,1,2.28-2.61,1.5,1.5,0,0,0-1.5-2.6,8.14,8.14,0,0,0-3.6,4.17,6.34,6.34,0,0,0-.29,3.48c-6.79,2.82-13.8,2.22-19.72.51a20.08,20.08,0,0,1,2.26,3.68,36.42,36.42,0,0,0,7.3.78A29.37,29.37,0,0,0,77.26,59a6.25,6.25,0,0,0,3.63,1.95,7.69,7.69,0,0,0,1.27.11,8.31,8.31,0,0,0,4.14-1.14A1.49,1.49,0,0,0,86.85,57.82Z"/><g id="Body"><g id="Rocket"><path id="Fire" class="cls-1" d="M35.4,94.91c-2,2-3,6-3,6l4-2,4,10,4-10,4,2s-1-4-3-6a7.24,7.24,0,0,0-10,0Z"/><path id="Pipe" class="cls-1" d="M31.59,89a3,3,0,0,0,2.81,2h12a3,3,0,0,0,2.82-2Z"/></g><path id="Belly" class="cls-1" d="M43.4,51.27V49h-6v2.27A18,18,0,0,0,22.4,69V83a4,4,0,0,0,4,4h28a4,4,0,0,0,4-4V69A18,18,0,0,0,43.4,51.27Zm-.27,26.29-1.63,1a2.2,2.2,0,0,1-2.19,0l-1.64-1V74.42l2.73,1.5,2.73-1.5Zm5.27-4.3a2.17,2.17,0,0,1-1.09,1.89l-1,.59V66.92a.48.48,0,0,0-.71-.41l-5.18,2.92-5.19-2.92a.47.47,0,0,0-.71.41v8.82l-1-.59a2.18,2.18,0,0,1-1.1-1.89V66.55a2.2,2.2,0,0,1,1.1-1.9l5.81-3.35a2.2,2.2,0,0,1,2.19,0l5.81,3.35a2.19,2.19,0,0,1,1.09,1.9Z"/></g><path id="Arm-left" class="cls-1" d="M25.87,55c-8.93,3.76-15.3,9.57-18.56,16.9-3.08-.27-6.17,2-7.24,5.49a1.5,1.5,0,0,0,2.87.88C3.66,75.92,5.75,74.45,7.6,75s2.75,3,2,5.32a1.51,1.51,0,0,0,1,1.88,1.59,1.59,0,0,0,.43.06,1.5,1.5,0,0,0,1.44-1.06A7.46,7.46,0,0,0,10.13,73,28.78,28.78,0,0,1,22.55,60a20.27,20.27,0,0,1,3.72-5.16Z"/></g><g id="Head"><path id="Face" class="cls-1" d="M63.44,15h-44a4,4,0,0,0-4,4V43a4,4,0,0,0,4,4h44a4,4,0,0,0,4-4V19A4,4,0,0,0,63.44,15Zm-29,26h-2V39h2Zm4,0h-2V39h2Zm4,0h-2V39h2Zm-15-8a6,6,0,0,1,0-12h19l-4,12Zm19,8h-2V39h2Zm4,0h-2V39h2Zm-4-8h-2l4-12h2ZM59.68,31.2A5.94,5.94,0,0,1,55.44,33h-4l4-12a6,6,0,0,1,6,6A5.94,5.94,0,0,1,59.68,31.2Z"/><path id="Ear-right" class="cls-1" d="M69.44,27.08h0a4,4,0,0,1,4,4h0a4,4,0,0,1-4,4h0v-8Z"/><path id="Ear-left" class="cls-1" d="M13.44,27h0v8h0a4,4,0,0,1-4-4h0A4,4,0,0,1,13.44,27Z"/><g id="Top"><path id="Antenna-left" class="cls-1" d="M31.44,5a4,4,0,1,0-5,3.85V13h2V8.81A4,4,0,0,0,31.44,5Z"/><path id="Antenna-right" class="cls-1" d="M59.44,5a4,4,0,1,0-5,3.85V13h2V8.81A4,4,0,0,0,59.44,5Z"/><path id="Signal" class="cls-1" d="M43.44,10a1,1,0,0,1-.9-.56l-3.1-6.21L38.33,5.4a1,1,0,0,1-.89.56h-2a1,1,0,0,1,0-2h1.38L38.54.51a1,1,0,0,1,1.79,0l3.11,6.21,1.1-2.21a1,1,0,0,1,.9-.55h2a1,1,0,0,1,0,2H46.05L44.33,9.4A1,1,0,0,1,43.44,10Z"/></g></g></g></g></g></svg>